<?xml version="1.0" encoding="utf-8"?>
<!-- Generator: Adobe Illustrator 19.1.0, SVG Export Plug-In . SVG Version: 6.00 Build 0)  -->
<svg version="1.1" id="Layer_1" xmlns="http://www.w3.org/2000/svg" xmlns:xlink="http://www.w3.org/1999/xlink" x="0px" y="0px"
	 viewBox="0 0 2338.4 1556.2" style="enable-background:new 0 0 2338.4 1556.2;" xml:space="preserve">
<style type="text/css">
	.st0{fill:none;stroke:#000000;stroke-width:3;stroke-miterlimit:10;}
</style>
<polygon class="st0" points="0,798 25,798 42,798 42,720 96,720 101,591 108,568 115,589 115,614 142,534 142,503 153,491 159,499 
	159,525 182,608 189,584 189,565 201,592 201,644.5 201,798 265,798 270,810 316,810 316,821 325,821 325,839 325,889 345,889 
	345,903 352,903 352,1132 361,1132 361,1183 400,1183 405,1139 415,1112 415,1049 421,1044 421,907 433,903 433,891 445,890 
	445,831 450,817 466,816 466,801 526,804 526,817 539,817 539,828 539,859 548,859 548,872 706,876 715,866 798,864 798,843 
	807,837 807,653 830,625 906,628 912,716 919,714 919,704 926,695 926,681 950,649 968,650 987,674 992,690 999,694 999,711 
	1007,711 1007,854 1023,862 1023,929 1033,931 1033,944 1044,940 1050,941 1056,939 1064,938 1064,931 1075,932 1082,934 1082,981 
	1128,980 1128,898 1141,892 1205,895 1205,884 1231,883 1231,895 1280,899 1274,529 1334,483 1416,490 1426,1041 1432,1041 
	1432,1082 1441,1083 1441,1037 1456,1020 1456,900 1466,878 1471,846 1491,838 1506,373 1544,337 1550,82 1562,321 1579,321 
	1579,82 1594,320 1604,334 1634,342 1657,683 1667,677 1667,661 1678,673 1687,657 1698,671 1706,696 1712,702 1712,754 1717,754 
	1717,828 1730,831 1730,883 1754,870 1806,861 1825,829 1825,812 1842,812 1870,821 1877,828 1901,823 1977,831 1977,866 2011,864 
	2011,906 2035,912 2035,939 2055,943 2055,954 2102,958 2102,968 2122,968 2122,960 2156,960 2156,971 2212,978 2231,994 2290,1003 
	2290,1022 2301,1025 2313,1024 2313,985 2338.4,981 2338.4,1310 0,1310 "/>
<line class="st0" x1="42" y1="798" x2="201" y2="798"/>
<polygon class="st0" points="2011,906 1979,906 1979,964 2018,964 2018,947 2035,939 2035,912 "/>
<polyline class="st0" points="539,859 492,859 492,879 452,879 445,890 "/>
<polygon class="st0" points="1280,899 1280,1115 1203,1126 1195,1126 1195,1089 1195,1039 1182,1038 1182,992 1128,980 1128,898 
	1141,892 1205,895 1205,884 1231,883 1231,895 "/>
<polygon class="st0" points="1657,683 1666,805 1677,805 1677,825 1717,828 1717,754 1712,754 1712,702 1706,696 1698,671 1687,657 
	1678,673 1667,661 1667,677 "/>
<polygon class="st0" points="1491,838 1491,1004.5 1469,1010 1469,1027 1441,1037 1456,1020 1456,900 1466,878 1471,846 "/>
<polygon class="st0" points="1822.3,833.6 1846,859 1858,859 1866,868 1873,883 1877,906 1884,906 1884,957 1889,992 1979,1008 
	1979,964 1979,906 1977,866 1977,831 1901,823 1877,828 1870,821 1842,812 1825,812 1825,829 "/>
<polyline class="st0" points="1730,883 1717,899.5 1717,917 1717,955 1717,1018 1717,1048 1680,1055 1646,1055 1570,1065 1570,879 
	1578,874.5 1580,857 1565,844 1621,821 1666,805 1677,805 1677,825 1717,828 "/>
</svg>
