<?xml version="1.0" encoding="utf-8"?>
<!-- Generator: Adobe Illustrator 19.1.0, SVG Export Plug-In . SVG Version: 6.00 Build 0)  -->
<svg version="1.1" id="Layer_1" xmlns="http://www.w3.org/2000/svg" xmlns:xlink="http://www.w3.org/1999/xlink" x="0px" y="0px"
	 viewBox="0 0 612 792" style="enable-background:new 0 0 612 792;" xml:space="preserve">
<path d="M481.5,472c-15.2-1.9-35.6-2.5-55.2-8.2c11.4-20.1,17.9-43.3,17.9-68.1c0-22.3-5.3-43.4-14.7-62.1
	c20.2-6.2,41.6-6.8,57.4-8.8c55.5-1.2,100.2-46.5,100.2-102.4c0-56.6-45.8-102.4-102.4-102.4c-55.8,0-101.2,44.7-102.4,100.2
	c-1.9,15.2-2.5,35.6-8.2,55.2C354,264,330.8,257.5,306,257.5c-22.3,0-43.4,5.3-62.1,14.7c-6.2-20.2-6.8-41.6-8.8-57.4
	c-1.2-55.5-46.5-100.2-102.4-100.2c-56.6,0-102.4,45.8-102.4,102.4c0,55.8,44.7,101.2,100.2,102.4c15.2,1.9,35.6,2.5,55.2,8.2
	c-11.4,20.1-17.9,43.3-17.9,68.1c0,22.3,5.3,43.4,14.7,62.1c-20.2,6.2-41.6,6.8-57.4,8.8c-55.4,1.2-100,46.6-100,102.4
	c0,56.6,45.8,102.4,102.4,102.4c55.8,0,101.2-44.7,102.4-100.2c1.9-15.2,2.5-35.6,8.2-55.2c20.1,11.4,43.3,17.9,68.1,17.9
	c22.3,0,43.4-5.3,62.1-14.7c6.2,20.2,6.8,41.6,8.8,57.4c1.2,55.5,46.5,100.2,102.4,100.2c56.6,0,102.4-45.8,102.4-102.4
	C581.7,518.5,537,473.1,481.5,472z M484.6,132.5c49.7,0,90,40.3,90,90s-40.3,90-90,90s-90-40.3-90-90
	C394.6,172.8,434.9,132.5,484.6,132.5z M132.8,307.2c-49.7,0-90-40.3-90-90s40.3-90,90-90s90,40.3,90,90S182.5,307.2,132.8,307.2z
	 M127.5,659.1c-49.7,0-90-40.3-90-90s40.3-90,90-90s90,40.3,90,90C217.5,618.7,177.2,659.1,127.5,659.1z M306,506.2
	c-61,0-110.4-49.4-110.4-110.4S245,285.4,306,285.4s110.4,49.4,110.4,110.4C416.4,456.7,367,506.2,306,506.2z M479.3,664.4
	c-49.7,0-90-40.3-90-90s40.3-90,90-90s90,40.3,90,90C569.3,624.1,529,664.4,479.3,664.4z M306,309.8c-47.5,0-86,38.5-86,86
	s38.5,86,86,86s86-38.5,86-86S353.5,309.8,306,309.8z"/>
</svg>
