<?xml version="1.0" encoding="utf-8"?>
<!-- Generator: Adobe Illustrator 19.1.0, SVG Export Plug-In . SVG Version: 6.00 Build 0)  -->
<svg version="1.1" id="Layer_1" xmlns="http://www.w3.org/2000/svg" xmlns:xlink="http://www.w3.org/1999/xlink" x="0px" y="0px"
	 viewBox="0 0 612 792" style="enable-background:new 0 0 612 792;" xml:space="preserve">
<style type="text/css">
	.st0{fill:#FFFFFF;stroke:#000000;stroke-width:3;stroke-miterlimit:10;}
	.st1{fill:none;stroke:#000000;stroke-width:3;stroke-miterlimit:10;}
</style>
<g>
	<ellipse class="st0" cx="306.9" cy="395.3" rx="155.2" ry="155.1"/>
	<path class="st1" d="M190.2,371.1h235.4c-9.2-41.4-107.9-55-174.7-40.7C218.5,337.4,194.3,350.9,190.2,371.1z"/>
	<path class="st1" d="M206.8,413.6c-1.1,0.5-2.3,0.6-3.5,0h-13.5c12.4,61.6,222.5,61.6,236.3,0H206.8z"/>
	<path class="st1" d="M312.3,324.9c0,0-72.3,37.5-34.7,28.2c37.6-9.3,55.8-26.9,59.8-26.9C337.5,326.2,325.3,325.2,312.3,324.9z"/>
	<path class="st1" d="M288.9,325.5c0,0-11.6,11.5-45.6,22.5s12.3-18.4,12.3-18.4S269.6,326.4,288.9,325.5z"/>
	<path class="st1" d="M384.6,336.5c0,0-12.9,6.6-58.3,15.6s34-22.1,34-22.1S369.6,331.6,384.6,336.5z"/>
	<path class="st1" d="M424.2,396.9c-0.1-0.1-0.1-0.2-0.2-0.2c-0.1-0.1-0.3-0.2-0.6-0.4c-25.1-2.1-67.1-3.6-114.7-3.6
		c-44.4,0-84,1.2-109.4,3.1c-2.2,0.2-4.2,0.3-6.2,0.5c-1.3,1.1-2.2,2.4-2.6,3.8c-0.1,0.4-0.2,0.8-0.3,1.2c0.6,1.4,1.6,2.7,2.2,3.5
		c0.2,0.2,0.3,0.4,0.4,0.7c2.6,0.2,5.5,0.5,8.5,0.7c25.5,1.8,64.2,3,107.4,3c48.2,0,90.7-1.4,115.6-3.6c0.1-0.3,0.4-0.7,0.7-1.1
		c0,0,0,0,0-0.1c0.7-1.7,0.8-3.3,0.8-5C425.3,398.5,424.8,397.8,424.2,396.9z"/>
	<path class="st1" d="M193.7,381.4c0,0,9.9-13.5,22.7,0c12.8,13.5,23.1,0,23.1,0"/>
	<path class="st1" d="M239.5,381.4c0,0,9.9-13.5,22.7,0c12.8,13.5,23.1,0,23.1,0"/>
	<path class="st1" d="M285.3,381.4c0,0,9.9-13.5,22.7,0c12.8,13.5,23.1,0,23.1,0"/>
	<path class="st1" d="M331.1,381.4c0,0,9.9-13.5,22.7,0s23.1,0,23.1,0"/>
	<path class="st1" d="M376.9,381.4c0,0,9.9-13.5,22.7,0c12.8,13.5,23.1,0,23.1,0"/>
</g>
</svg>
