<?xml version="1.0" encoding="utf-8"?>
<!-- Generator: Adobe Illustrator 19.1.0, SVG Export Plug-In . SVG Version: 6.00 Build 0)  -->
<svg version="1.1" id="Layer_1" xmlns="http://www.w3.org/2000/svg" xmlns:xlink="http://www.w3.org/1999/xlink" x="0px" y="0px"
	 viewBox="0 0 288 288" style="enable-background:new 0 0 288 288;" xml:space="preserve">
<style type="text/css">
	.st0{fill:#FFFFFF;stroke:#BCBEC0;stroke-width:2;stroke-miterlimit:10;}
	.st1{fill:none;stroke:#BCBEC0;stroke-width:2;stroke-miterlimit:10;}
</style>
<g>
	<ellipse class="st0" cx="143" cy="141.9" rx="83.1" ry="83"/>
	<path class="st1" d="M80.5,127.9h126c-4.9-22.2-57.8-29.4-93.5-21.8C95.7,109.9,82.7,117.1,80.5,127.9z"/>
	<path class="st1" d="M89.4,152.7c-0.6,0.3-1.2,0.3-1.9,0h-7.2c6.6,33,119.1,33,126.5,0H89.4z"/>
	<path class="st1" d="M145.9,103.2c0,0-38.7,20.1-18.6,15.1c20.1-5,29.9-14.4,32-14.4C159.4,103.9,152.8,103.4,145.9,103.2z"/>
	<path class="st1" d="M133.4,103.5c0,0-6.2,6.2-24.4,12c-18.2,5.9,6.6-9.8,6.6-9.8S123,104,133.4,103.5z"/>
	<path class="st1" d="M184.6,109.4c0,0-6.9,3.5-31.2,8.4s18.2-11.8,18.2-11.8S176.6,106.8,184.6,109.4z"/>
	<path class="st1" d="M205.8,142.7c-0.1-0.1-0.1-0.1-0.1-0.1c-0.1-0.1-0.2-0.1-0.3-0.2c-13.4-1.1-35.9-1.9-61.4-1.9
		c-23.8,0-45,0.6-58.6,1.7c-1.2,0.1-2.2,0.2-3.3,0.3c-0.7,0.6-1.2,1.3-1.4,2c-0.1,0.2-0.1,0.4-0.2,0.6c0.3,0.7,0.9,1.4,1.2,1.9
		c0.1,0.1,0.2,0.2,0.2,0.4c1.4,0.1,2.9,0.3,4.6,0.4c13.7,1,34.4,1.6,57.5,1.6c25.8,0,48.6-0.7,61.9-1.9c0.1-0.2,0.2-0.4,0.4-0.6
		c0,0,0,0,0-0.1c0.4-0.9,0.4-1.8,0.4-2.7C206.4,143.6,206.1,143.2,205.8,142.7z"/>
	<g>
		<path class="st1" d="M82.4,134.4c0,0,5.3-7.2,12.2,0c6.9,7.2,12.4,0,12.4,0"/>
		<path class="st1" d="M106.9,134.4c0,0,5.3-7.2,12.2,0c6.9,7.2,12.4,0,12.4,0"/>
		<path class="st1" d="M131.4,134.4c0,0,5.3-7.2,12.2,0c6.9,7.2,12.4,0,12.4,0"/>
		<path class="st1" d="M156,134.4c0,0,5.3-7.2,12.2,0c6.9,7.2,12.4,0,12.4,0"/>
		<path class="st1" d="M180.5,134.4c0,0,5.3-7.2,12.2,0c6.9,7.2,12.4,0,12.4,0"/>
	</g>
</g>
</svg>
