<?xml version="1.0" encoding="utf-8"?>
<!-- Generator: Adobe Illustrator 19.1.0, SVG Export Plug-In . SVG Version: 6.00 Build 0)  -->
<svg version="1.1" id="Layer_1" xmlns="http://www.w3.org/2000/svg" xmlns:xlink="http://www.w3.org/1999/xlink" x="0px" y="0px"
	 viewBox="0 0 288 288" style="enable-background:new 0 0 288 288;" xml:space="preserve">
<style type="text/css">
	.st0{fill:#FFFFFF;stroke:#6D6E71;stroke-width:2;stroke-miterlimit:10;}
	.st1{fill:none;stroke:#6D6E71;stroke-width:2;stroke-miterlimit:10;}
</style>
<g>
	<ellipse class="st0" cx="144" cy="134.9" rx="83.1" ry="83"/>
	<path class="st1" d="M81.5,121h126c-4.9-22.2-57.8-29.4-93.5-21.8C96.7,102.9,83.7,110.2,81.5,121z"/>
	<path class="st1" d="M90.4,145.7c-0.6,0.3-1.2,0.3-1.9,0h-7.2c6.6,33,119.1,33,126.5,0H90.4z"/>
	<path class="st1" d="M146.9,96.2c0,0-38.7,20.1-18.6,15.1c20.1-5,29.9-14.4,32-14.4C160.4,96.9,153.8,96.4,146.9,96.2z"/>
	<path class="st1" d="M134.4,96.6c0,0-6.2,6.2-24.4,12c-18.2,5.9,6.6-9.8,6.6-9.8S124,97,134.4,96.6z"/>
	<path class="st1" d="M185.6,102.5c0,0-6.9,3.5-31.2,8.4S172.6,99,172.6,99S177.6,99.8,185.6,102.5z"/>
	<path class="st1" d="M206.8,135.8c-0.1-0.1-0.1-0.1-0.1-0.1c-0.1-0.1-0.2-0.1-0.3-0.2c-13.4-1.1-35.9-1.9-61.4-1.9
		c-23.8,0-45,0.6-58.6,1.7c-1.2,0.1-2.2,0.2-3.3,0.3c-0.7,0.6-1.2,1.3-1.4,2c-0.1,0.2-0.1,0.4-0.2,0.6c0.3,0.7,0.9,1.4,1.2,1.9
		c0.1,0.1,0.2,0.2,0.2,0.4c1.4,0.1,2.9,0.3,4.6,0.4c13.7,1,34.4,1.6,57.5,1.6c25.8,0,48.6-0.7,61.9-1.9c0.1-0.2,0.2-0.4,0.4-0.6
		c0,0,0,0,0-0.1c0.4-0.9,0.4-1.8,0.4-2.7C207.4,136.6,207.1,136.3,206.8,135.8z"/>
	<g>
		<path class="st1" d="M83.4,127.5c0,0,5.3-7.2,12.2,0c6.9,7.2,12.4,0,12.4,0"/>
		<path class="st1" d="M107.9,127.5c0,0,5.3-7.2,12.2,0c6.9,7.2,12.4,0,12.4,0"/>
		<path class="st1" d="M132.4,127.5c0,0,5.3-7.2,12.2,0c6.9,7.2,12.4,0,12.4,0"/>
		<path class="st1" d="M157,127.5c0,0,5.3-7.2,12.2,0c6.9,7.2,12.4,0,12.4,0"/>
		<path class="st1" d="M181.5,127.5c0,0,5.3-7.2,12.2,0c6.9,7.2,12.4,0,12.4,0"/>
	</g>
</g>
</svg>
