<?xml version="1.0" encoding="utf-8"?>
<!-- Generator: Adobe Illustrator 15.0.0, SVG Export Plug-In . SVG Version: 6.00 Build 0)  -->
<!DOCTYPE svg PUBLIC "-//W3C//DTD SVG 1.1//EN" "http://www.w3.org/Graphics/SVG/1.1/DTD/svg11.dtd">
<svg version="1.1" id="Layer_1" xmlns="http://www.w3.org/2000/svg" xmlns:xlink="http://www.w3.org/1999/xlink" x="0px" y="0px"
	 width="576px" height="576px" viewBox="0 0 576 576" enable-background="new 0 0 576 576" xml:space="preserve">
<g>
	<path d="M296.336,287.585c1.383-2.255,2.255-4.946,2.255-7.782c0-3.709-1.382-7.127-3.636-9.746
		c4.218-2.836,8.145-3.127,13.381-7.346c13.383-10.909,21.674-26.4,19.273-27.709c-2.182-1.164-25.746,21.309-36.072,32.218
		c-2.256-1.382-4.946-2.254-7.783-2.254c-3.709,0-7.127,1.382-9.745,3.636c-2.836-4.146-3.127-8.146-7.346-13.382
		c-10.909-13.382-26.4-21.673-27.709-19.272c-1.164,2.182,21.309,25.745,32.218,36.072c-1.382,2.255-2.254,4.946-2.254,7.782
		c0,3.709,1.382,7.127,3.636,9.746c-4.218,2.836-8.146,3.127-13.382,7.346c-13.382,10.908-21.673,26.399-19.273,27.709
		c2.182,1.163,25.746-21.31,36.073-32.219c2.255,1.382,4.946,2.254,7.782,2.254c3.709,0,7.127-1.381,9.746-3.636
		c2.836,4.146,3.127,8.146,7.346,13.382c10.908,13.382,26.4,21.673,27.709,19.273C329.719,321.476,307.246,297.912,296.336,287.585z
		 M283.682,287.948c-4.509,0-8.145-3.636-8.145-8.145c0-4.509,3.636-8.146,8.145-8.146c4.509,0,8.146,3.636,8.146,8.146
		C291.827,284.312,288.191,287.948,283.682,287.948z"/>
</g>
</svg>
