<?xml version="1.0" encoding="utf-8"?>
<!-- Generator: Adobe Illustrator 15.0.0, SVG Export Plug-In . SVG Version: 6.00 Build 0)  -->
<!DOCTYPE svg PUBLIC "-//W3C//DTD SVG 1.1//EN" "http://www.w3.org/Graphics/SVG/1.1/DTD/svg11.dtd">
<svg version="1.1" id="Layer_1" xmlns="http://www.w3.org/2000/svg" xmlns:xlink="http://www.w3.org/1999/xlink" x="0px" y="0px"
	 width="576px" height="576px" viewBox="0 0 576 576" enable-background="new 0 0 576 576" xml:space="preserve">
<path fill="#435DAA" d="M125.226,175.334c0,0,30.865-37.266,47.922-47.284c17.057-10.018,32.083-17.631,36.551-20.837
	s36.957-11.621,36.957-11.621s51.983-7.613,51.983-5.209s15.839-1.603,41.424,4.408c25.586,6.011,45.486,14.025,45.892,15.627
	c0.406,1.603,40.612,25.245,44.268,29.653s33.708,35.663,38.581,42.876c4.874,7.212,44.674,84.549,30.865,148.664
	c-13.808,64.113-54.826,113.4-82.849,130.631c-28.021,17.23-80.006,44.479-126.303,38.469
	c-46.298-6.011-100.718-18.834-131.177-48.486c-30.459-29.652-58.481-66.518-65.792-100.578
	C86.238,317.586,75.679,234.238,125.226,175.334z"/>
<image overflow="visible" width="512" height="512" xlink:href="sandwich-512.png"  transform="matrix(1 0 0 1 43.5 32)">
</image>
</svg>
