<?xml version="1.0" encoding="utf-8"?>
<!-- Generator: Adobe Illustrator 15.0.0, SVG Export Plug-In . SVG Version: 6.00 Build 0)  -->
<!DOCTYPE svg PUBLIC "-//W3C//DTD SVG 1.1//EN" "http://www.w3.org/Graphics/SVG/1.1/DTD/svg11.dtd">
<svg version="1.1" id="Layer_1" xmlns="http://www.w3.org/2000/svg" xmlns:xlink="http://www.w3.org/1999/xlink" x="0px" y="0px"
	 width="576px" height="576px" viewBox="0 0 576 576" enable-background="new 0 0 576 576" xml:space="preserve">
<path stroke="#000000" stroke-miterlimit="10" d="M794.676,205.589"/>
<path fill="#FFFFFF" stroke="#000000" stroke-miterlimit="10" d="M647.001,261.333"/>
<path stroke="#000000" stroke-miterlimit="10" d="M773.211,188.792"/>
<g>
	<ellipse fill="#6D6E71" stroke="#000000" stroke-miterlimit="10" cx="286.594" cy="273.771" rx="155.208" ry="155.073"/>
	<path fill="#1C75BC" d="M169.91,249.61h235.424c-9.228-41.431-107.891-55.003-174.653-40.719
		C198.154,215.852,173.962,229.425,169.91,249.61z"/>
	<path fill="#1C75BC" d="M186.478,290.124c-1.062,0.511-2.29,0.601-3.531,0h-13.451c12.416,61.616,222.479,61.616,236.252,0H186.478
		z"/>
	<path fill="#FFFFFF" d="M292,203.398c0,0-72.332,37.498-34.666,28.165s55.812-26.868,59.821-26.868
		C317.156,204.694,304.958,203.691,292,203.398z"/>
	<path fill="#FFFFFF" d="M268.622,203.997c0,0-11.637,11.498-45.637,22.544s12.266-18.395,12.266-18.395
		S249.243,204.93,268.622,203.997z"/>
	<path fill="#FFFFFF" d="M364.252,214.974c0,0-12.918,6.588-58.252,15.588s33.969-22.128,33.969-22.128
		S349.293,210.052,364.252,214.974z"/>
	<path d="M403.855,275.426c-0.08-0.077-0.148-0.16-0.23-0.236c-0.055-0.051-0.34-0.228-0.605-0.409
		c-25.07-2.145-67.1-3.552-114.745-3.552c-44.409,0-83.956,1.222-109.422,3.124c-2.18,0.163-4.243,0.331-6.21,0.504
		c-1.325,1.078-2.188,2.391-2.579,3.751c-0.112,0.39-0.211,0.784-0.273,1.181c0.609,1.388,1.57,2.732,2.163,3.453
		c0.179,0.216,0.309,0.44,0.409,0.667c2.645,0.234,5.465,0.46,8.495,0.676c25.512,1.818,64.158,2.978,107.417,2.978
		c48.2,0,90.672-1.44,115.629-3.626c0.121-0.345,0.354-0.699,0.672-1.056c0.01-0.019,0.012-0.038,0.021-0.057
		c0.682-1.66,0.785-3.271,0.803-4.964C404.947,277.019,404.461,276.243,403.855,275.426z"/>
	<path fill="none" stroke="#BE1E2D" stroke-width="3" stroke-miterlimit="10" d="M173.334,259.896c0,0,9.94-13.492,22.722,0
		c12.782,13.492,23.078,0,23.078,0"/>
	<path fill="none" stroke="#BE1E2D" stroke-width="3" stroke-miterlimit="10" d="M219.134,259.896c0,0,9.94-13.492,22.722,0
		c12.782,13.492,23.078,0,23.078,0"/>
	<path fill="none" stroke="#BE1E2D" stroke-width="3" stroke-miterlimit="10" d="M264.934,259.896c0,0,9.94-13.492,22.722,0
		c12.782,13.492,23.078,0,23.078,0"/>
	<path fill="none" stroke="#BE1E2D" stroke-width="3" stroke-miterlimit="10" d="M310.734,259.896c0,0,9.94-13.492,22.722,0
		c12.782,13.492,23.078,0,23.078,0"/>
	<path fill="none" stroke="#BE1E2D" stroke-width="3" stroke-miterlimit="10" d="M356.534,259.896c0,0,9.94-13.492,22.722,0
		c12.782,13.492,23.079,0,23.079,0"/>
</g>
</svg>
